# xmcd CD database file
#
# Track frame offsets:
#	150
#	14828
#	35695
#	51272
#	75597
#	90908
#	108046
#	123161
#	143025
#	158833
#	177517
#	194411
#	210566
#	229405
#	242737
#	264836
#	283405
#	299507
#	316696
#	334941
#
# Disc length: 4705 seconds
#
# Revision: 0
# Processed by: cddbd v1.5.2PL0 Copyright (c) Steve Scherf et al.
# Submitted via: CDex 1.51
#
DISCID=21125f14
DTITLE=Paula Fernandes - Encontros pelo caminho
DYEAR=2014
DGENRE=Country
TTITLE0=Depois
TTITLE1=highway don't care
TTITLE2=Over the rainbow
TTITLE3=Caminhoneiro
TTITLE4=Criação divina
TTITLE5=Pegando lágrimas
TTITLE6=Se tudo fosse fácil
TTITLE7=Hoy me voy
TTITLE8=You're still the one
TTITLE9=Fire bird
TTITLE10=Humanos a marte
TTITLE11=Não precisa
TTITLE12=Harmonia do amor
TTITLE13=Brazil
TTITLE14=Jeito de mato
TTITLE15=Tristeza do jeca
TTITLE16=India
TTITLE17=Quando a chuva passar
TTITLE18=Meu grito de amor
TTITLE19=Eu sem você
EXTD=YEAR: 2014
EXTT0=
EXTT1=
EXTT2=
EXTT3=
EXTT4=
EXTT5=
EXTT6=
EXTT7=
EXTT8=
EXTT9=
EXTT10=
EXTT11=
EXTT12=
EXTT13=
EXTT14=
EXTT15=
EXTT16=
EXTT17=
EXTT18=
EXTT19=
PLAYORDER=
